0
SECTION
2
HEADER
9
$INSUNITS
70
4
0
ENDSEC
0
SECTION
2
TABLES
0
TABLE
2
LTYPE
0
LTYPE
72
65
70
64
2
CONTINUOUS
3
______
73
0
40
0
0
ENDTAB
0
TABLE
2
LAYER
0
ENDTAB
0
ENDSEC
0
SECTION
2
ENTITIES
0
LINE
8
0
10
3.1707521
20
-18.2551812
11
15.7277879
21
-21.6198288
0
LINE
8
0
10
-0.4527145
20
-31.7781428
11
12.1043213
21
-35.1427904
0
LINE
8
0
10
2.5583797
20
-18.6087346
11
-0.8062679
21
-31.1657704
0
LINE
8
0
10
16.0813413
20
-22.2322012
11
12.7166937
21
-34.789237
0
ARC
8
0
10
3.0413426
20
-18.7381441
40
0.5
50
75
51
165
0
ARC
8
0
10
15.5983784
20
-22.1027917
40
0.5
50
345
51
75
0
ARC
8
0
10
-0.323305
20
-31.2951799
40
0.5
50
165
51
255
0
ARC
8
0
10
12.2337308
20
-34.6598275
40
0.5
50
255
51
345
0
LINE
8
0
10
21.5716391
20
-23.1856841
11
34.1286749
21
-26.5503317
0
LINE
8
0
10
17.9481725
20
-36.7086457
11
30.5052083
21
-40.0732933
0
LINE
8
0
10
20.9592667
20
-23.5392375
11
17.5946191
21
-36.0962733
0
LINE
8
0
10
34.4822283
20
-27.1627041
11
31.1175807
21
-39.7197399
0
ARC
8
0
10
21.4422296
20
-23.668647
40
0.5
50
75
51
165
0
ARC
8
0
10
33.9992654
20
-27.0332946
40
0.5
50
345
51
75
0
ARC
8
0
10
18.077582
20
-36.2256828
40
0.5
50
165
51
255
0
ARC
8
0
10
30.6346178
20
-39.5903304
40
0.5
50
255
51
345
0
LINE
8
0
10
39.9725261
20
-28.1161869
11
52.5295619
21
-31.4808345
0
LINE
8
0
10
36.3490595
20
-41.6391485
11
48.9060953
21
-45.0037961
0
LINE
8
0
10
39.3601537
20
-28.4697403
11
35.9955061
21
-41.0267761
0
LINE
8
0
10
52.8831153
20
-32.0932069
11
49.5184677
21
-44.6502427
0
ARC
8
0
10
39.8431166
20
-28.5991498
40
0.5
50
75
51
165
0
ARC
8
0
10
52.4001524
20
-31.9637974
40
0.5
50
345
51
75
0
ARC
8
0
10
36.478469
20
-41.1561856
40
0.5
50
165
51
255
0
ARC
8
0
10
49.0355048
20
-44.5208332
40
0.5
50
255
51
345
0
LINE
8
0
10
28.3190998
20
-50.1638128
11
24.9544522
21
-62.7208486
0
LINE
8
0
10
14.7961382
20
-46.5403462
11
11.4314906
21
-59.097382
0
LINE
8
0
10
27.9655464
20
-49.5514404
11
15.4085106
21
-46.1867928
0
LINE
8
0
10
24.3420798
20
-63.074402
11
11.785044
21
-59.7097544
0
ARC
8
0
10
27.8361369
20
-50.0344033
40
0.5
50
345
51
75
0
ARC
8
0
10
24.4714893
20
-62.5914391
40
0.5
50
255
51
345
0
ARC
8
0
10
15.2791011
20
-46.6697557
40
0.5
50
75
51
165
0
ARC
8
0
10
11.9144535
20
-59.2267915
40
0.5
50
165
51
255
0
LINE
8
0
10
46.7199868
20
-55.0943156
11
43.3553392
21
-67.6513514
0
LINE
8
0
10
33.1970252
20
-51.470849
11
29.8323776
21
-64.0278848
0
LINE
8
0
10
46.3664334
20
-54.4819432
11
33.8093976
21
-51.1172956
0
LINE
8
0
10
42.7429668
20
-68.0049048
11
30.185931
21
-64.6402572
0
ARC
8
0
10
46.2370239
20
-54.9649061
40
0.5
50
345
51
75
0
ARC
8
0
10
42.8723763
20
-67.5219419
40
0.5
50
255
51
345
0
ARC
8
0
10
33.6799881
20
-51.6002585
40
0.5
50
75
51
165
0
ARC
8
0
10
30.3153405
20
-64.1572943
40
0.5
50
165
51
255
0
LINE
8
0
10
69.9564212
20
-106.6389393
11
66.5917736
21
-119.1959751
0
LINE
8
0
10
56.4334596
20
-103.0154727
11
53.068812
21
-115.5725085
0
LINE
8
0
10
69.6028678
20
-106.0265669
11
57.045832
21
-102.6619193
0
LINE
8
0
10
65.9794012
20
-119.5495285
11
53.4223654
21
-116.1848809
0
ARC
8
0
10
69.4734583
20
-106.5095298
40
0.5
50
345
51
75
0
ARC
8
0
10
66.1088107
20
-119.0665656
40
0.5
50
255
51
345
0
ARC
8
0
10
56.9164225
20
-103.1448822
40
0.5
50
75
51
165
0
ARC
8
0
10
53.5517749
20
-115.701918
40
0.5
50
165
51
255
0
LINE
8
0
10
77.2956575
20
-100.6920895
11
89.8526933
21
-104.0567371
0
LINE
8
0
10
73.6721909
20
-114.2150511
11
86.2292267
21
-117.5796987
0
LINE
8
0
10
76.6832851
20
-101.0456429
11
73.3186375
21
-113.6026787
0
LINE
8
0
10
90.2062467
20
-104.6691095
11
86.8415991
21
-117.2261453
0
ARC
8
0
10
77.166248
20
-101.1750524
40
0.5
50
75
51
165
0
ARC
8
0
10
89.7232838
20
-104.5397
40
0.5
50
345
51
75
0
ARC
8
0
10
73.8016004
20
-113.7320882
40
0.5
50
165
51
255
0
ARC
8
0
10
86.3586362
20
-117.0967358
40
0.5
50
255
51
345
0
LINE
8
0
10
72.3651547
20
-119.0929765
11
84.9221905
21
-122.4576241
0
LINE
8
0
10
68.7416881
20
-132.6159381
11
81.2987239
21
-135.9805857
0
LINE
8
0
10
71.7527823
20
-119.4465299
11
68.3881347
21
-132.0035657
0
LINE
8
0
10
85.2757439
20
-123.0699965
11
81.9110963
21
-135.6270323
0
ARC
8
0
10
72.2357452
20
-119.5759394
40
0.5
50
75
51
165
0
ARC
8
0
10
84.792781
20
-122.940587
40
0.5
50
345
51
75
0
ARC
8
0
10
68.8710976
20
-132.1329752
40
0.5
50
165
51
255
0
ARC
8
0
10
81.4281334
20
-135.4976228
40
0.5
50
255
51
345
0
LINE
8
0
10
50.2663906
20
-127.9631389
11
62.8234264
21
-131.3277865
0
LINE
8
0
10
46.642924
20
-141.4861005
11
59.1999598
21
-144.8507481
0
LINE
8
0
10
49.6540182
20
-128.3166923
11
46.2893706
21
-140.8737281
0
LINE
8
0
10
63.1769798
20
-131.9401589
11
59.8123322
21
-144.4971947
0
ARC
8
0
10
50.1369811
20
-128.4461018
40
0.5
50
75
51
165
0
ARC
8
0
10
62.6940169
20
-131.8107494
40
0.5
50
345
51
75
0
ARC
8
0
10
46.7723335
20
-141.0031376
40
0.5
50
165
51
255
0
ARC
8
0
10
59.3293693
20
-144.3677852
40
0.5
50
255
51
345
0
LINE
8
0
10
67.4346519
20
-137.4938634
11
79.9916877
21
-140.858511
0
LINE
8
0
10
63.8111853
20
-151.016825
11
76.3682211
21
-154.3814726
0
LINE
8
0
10
66.8222795
20
-137.8474168
11
63.4576319
21
-150.4044526
0
LINE
8
0
10
80.3452411
20
-141.4708834
11
76.9805935
21
-154.0279192
0
ARC
8
0
10
67.3052424
20
-137.9768263
40
0.5
50
75
51
165
0
ARC
8
0
10
79.8622782
20
-141.3414739
40
0.5
50
345
51
75
0
ARC
8
0
10
63.9405948
20
-150.5338621
40
0.5
50
165
51
255
0
ARC
8
0
10
76.4976306
20
-153.8985097
40
0.5
50
255
51
345
0
LINE
8
0
10
154.2386342
20
-30.3129942
11
166.79567
21
-26.9483466
0
LINE
8
0
10
157.8621008
20
-43.8359558
11
170.4191366
21
-40.4713082
0
LINE
8
0
10
153.8850808
20
-30.9253666
11
157.2497284
21
-43.4824024
0
LINE
8
0
10
167.4080424
20
-27.3019
11
170.77269
21
-39.8589358
0
ARC
8
0
10
154.3680437
20
-30.7959571
40
0.5
50
105
51
195
0
ARC
8
0
10
166.9250795
20
-27.4313095
40
0.5
50
15
51
105
0
ARC
8
0
10
157.7326913
20
-43.3529929
40
0.5
50
195
51
285
0
ARC
8
0
10
170.2897271
20
-39.9883453
40
0.5
50
285
51
15
0
LINE
8
0
10
172.6395212
20
-25.3824914
11
185.196557
21
-22.0178438
0
LINE
8
0
10
176.2629878
20
-38.905453
11
188.8200236
21
-35.5408054
0
LINE
8
0
10
172.2859678
20
-25.9948638
11
175.6506154
21
-38.5518996
0
LINE
8
0
10
185.8089294
20
-22.3713972
11
189.173577
21
-34.928433
0
ARC
8
0
10
172.7689307
20
-25.8654543
40
0.5
50
105
51
195
0
ARC
8
0
10
185.3259665
20
-22.5008067
40
0.5
50
15
51
105
0
ARC
8
0
10
176.1335783
20
-38.4224901
40
0.5
50
195
51
285
0
ARC
8
0
10
188.6906141
20
-35.0578425
40
0.5
50
285
51
15
0
LINE
8
0
10
173.5711709
20
-50.3030087
11
176.9358185
21
-62.8600445
0
LINE
8
0
10
160.0482093
20
-53.9264753
11
163.4128569
21
-66.4835111
0
LINE
8
0
10
172.9587985
20
-49.9494553
11
160.4017627
21
-53.3141029
0
LINE
8
0
10
176.5822651
20
-63.4724169
11
164.0252293
21
-66.8370645
0
ARC
8
0
10
173.088208
20
-50.4324182
40
0.5
50
15
51
105
0
ARC
8
0
10
176.4528556
20
-62.989454
40
0.5
50
285
51
15
0
ARC
8
0
10
160.5311722
20
-53.7970658
40
0.5
50
105
51
195
0
ARC
8
0
10
163.8958198
20
-66.3541016
40
0.5
50
195
51
285
0
LINE
8
0
10
191.9720579
20
-45.3725059
11
195.3367055
21
-57.9295417
0
LINE
8
0
10
178.4490963
20
-48.9959725
11
181.8137439
21
-61.5530083
0
LINE
8
0
10
191.3596855
20
-45.0189525
11
178.8026497
21
-48.3836001
0
LINE
8
0
10
194.9831521
20
-58.5419141
11
182.4261163
21
-61.9065617
0
ARC
8
0
10
191.489095
20
-45.5019154
40
0.5
50
15
51
105
0
ARC
8
0
10
194.8537426
20
-58.0589512
40
0.5
50
285
51
15
0
ARC
8
0
10
178.9320592
20
-48.866563
40
0.5
50
105
51
195
0
ARC
8
0
10
182.2967068
20
-61.4235988
40
0.5
50
195
51
285
0
LINE
8
0
10
210.3729449
20
-40.4420031
11
213.7375925
21
-52.9990389
0
LINE
8
0
10
196.8499833
20
-44.0654697
11
200.2146309
21
-56.6225055
0
LINE
8
0
10
209.7605725
20
-40.0884497
11
197.2035367
21
-43.4530973
0
LINE
8
0
10
213.3840391
20
-53.6114113
11
200.8270033
21
-56.9760589
0
ARC
8
0
10
209.889982
20
-40.5714126
40
0.5
50
15
51
105
0
ARC
8
0
10
213.2546296
20
-53.1284484
40
0.5
50
285
51
15
0
ARC
8
0
10
197.3329462
20
-43.9360602
40
0.5
50
105
51
195
0
ARC
8
0
10
200.6975938
20
-56.493096
40
0.5
50
195
51
285
0
LINE
8
0
10
118.7213577
20
-103.3313895
11
131.2783935
21
-99.9667419
0
LINE
8
0
10
122.3448243
20
-116.8543511
11
134.9018601
21
-113.4897035
0
LINE
8
0
10
118.3678043
20
-103.9437619
11
121.7324519
21
-116.5007977
0
LINE
8
0
10
131.8907659
20
-100.3202953
11
135.2554135
21
-112.8773311
0
ARC
8
0
10
118.8507672
20
-103.8143524
40
0.5
50
105
51
195
0
ARC
8
0
10
131.407803
20
-100.4497048
40
0.5
50
15
51
105
0
ARC
8
0
10
122.2154148
20
-116.3713882
40
0.5
50
195
51
285
0
ARC
8
0
10
134.7724506
20
-113.0067406
40
0.5
50
285
51
15
0
LINE
8
0
10
152.1405914
20
-102.2901251
11
155.505239
21
-114.8471609
0
LINE
8
0
10
138.6176298
20
-105.9135917
11
141.9822774
21
-118.4706275
0
LINE
8
0
10
151.528219
20
-101.9365717
11
138.9711832
21
-105.3012193
0
LINE
8
0
10
155.1516856
20
-115.4595333
11
142.5946498
21
-118.8241809
0
ARC
8
0
10
151.6576285
20
-102.4195346
40
0.5
50
15
51
105
0
ARC
8
0
10
155.0222761
20
-114.9765704
40
0.5
50
285
51
15
0
ARC
8
0
10
139.1005927
20
-105.7841822
40
0.5
50
105
51
195
0
ARC
8
0
10
142.4652403
20
-118.341218
40
0.5
50
195
51
285
0
LINE
8
0
10
123.6518605
20
-121.7322765
11
136.2088963
21
-118.3676289
0
LINE
8
0
10
127.2753271
20
-135.2552381
11
139.8323629
21
-131.8905905
0
LINE
8
0
10
123.2983071
20
-122.3446489
11
126.6629547
21
-134.9016847
0
LINE
8
0
10
136.8212687
20
-118.7211823
11
140.1859163
21
-131.2782181
0
ARC
8
0
10
123.78127
20
-122.2152394
40
0.5
50
105
51
195
0
ARC
8
0
10
136.3383058
20
-118.8505918
40
0.5
50
15
51
105
0
ARC
8
0
10
127.1459176
20
-134.7722752
40
0.5
50
195
51
285
0
ARC
8
0
10
139.7029534
20
-131.4076276
40
0.5
50
285
51
15
0
LINE
8
0
10
145.7506246
20
-130.6024389
11
158.3076604
21
-127.2377913
0
LINE
8
0
10
149.3740912
20
-144.1254005
11
161.931127
21
-140.7607529
0
LINE
8
0
10
145.3970712
20
-131.2148113
11
148.7617188
21
-143.7718471
0
LINE
8
0
10
158.9200328
20
-127.5913447
11
162.2846804
21
-140.1483805
0
ARC
8
0
10
145.8800341
20
-131.0854018
40
0.5
50
105
51
195
0
ARC
8
0
10
158.4370699
20
-127.7207542
40
0.5
50
15
51
105
0
ARC
8
0
10
149.2446817
20
-143.6424376
40
0.5
50
195
51
285
0
ARC
8
0
10
161.8017175
20
-140.27779
40
0.5
50
285
51
15
0
LINE
8
0
10
128.5823633
20
-140.1331635
11
141.1393991
21
-136.7685159
0
LINE
8
0
10
132.2058299
20
-153.6561251
11
144.7628657
21
-150.2914775
0
LINE
8
0
10
128.2288099
20
-140.7455359
11
131.5934575
21
-153.3025717
0
LINE
8
0
10
141.7517715
20
-137.1220693
11
145.1164191
21
-149.6791051
0
ARC
8
0
10
128.7117728
20
-140.6161264
40
0.5
50
105
51
195
0
ARC
8
0
10
141.2688086
20
-137.2514788
40
0.5
50
15
51
105
0
ARC
8
0
10
132.0764204
20
-153.1731622
40
0.5
50
195
51
285
0
ARC
8
0
10
144.6334562
20
-149.8085146
40
0.5
50
285
51
15
0
LINE
8
0
10
-1.8874633
20
-155.462668
11
214.8187879
21
-155.462668
0
LINE
8
0
10
-1.8874633
20
-17.1739858
11
214.8187879
21
-17.1739858
0
LINE
8
0
10
-1.8874633
20
-155.462668
11
-1.8874633
21
-17.1739858
0
LINE
8
0
10
214.8187879
20
-155.462668
11
214.8187879
21
-17.1739858
0
ENDSEC
0
EOF