0
SECTION
2
HEADER
9
$INSUNITS
70
4
9
$ACADVER
1
AC1014
9
$HANDSEED
5
FFFF
0
ENDSEC
0
SECTION
2
TABLES
0
TABLE
2
VPORT
5
8
100
AcDbSymbolTable
0
ENDTAB
0
TABLE
2
LTYPE
5
5
100
AcDbSymbolTable
0
LTYPE
5
14
100
AcDbSymbolTableRecord
100
AcDbLinetypeTableRecord
2
BYBLOCK
70
0
0
LTYPE
5
15
100
AcDbSymbolTableRecord
100
AcDbLinetypeTableRecord
2
BYLAYER
70
0
0
LTYPE
5
16
100
AcDbSymbolTableRecord
100
AcDbLinetypeTableRecord
2
DASHED
70
0
3
Dashed __ __ __ __ __ __ __ __ __ __ __ __ __ _
72
65
73
2
40
0.75
49
0.5
74
0
49
-0.25
74
0
0
ENDTAB
0
TABLE
2
LAYER
5
2
100
AcDbSymbolTable
70
3
0
LAYER
5
50
100
AcDbSymbolTableRecord
100
AcDbLayerTableRecord
2
1
70
0
62
7
6
DASHED
0
LAYER
5
51
100
AcDbSymbolTableRecord
100
AcDbLayerTableRecord
2
0
70
0
62
7
6
CONTINUOUS
0
ENDTAB
0
TABLE
2
STYLE
5
3
100
AcDbSymbolTable
70
1
0
STYLE
5
11
100
AcDbSymbolTableRecord
100
AcDbTextStyleTableRecord
2
STANDARD
70
0
0
ENDTAB
0
TABLE
2
VIEW
5
6
100
AcDbSymbolTable
70
0
0
ENDTAB
0
TABLE
2
UCS
5
7
100
AcDbSymbolTable
70
0
0
ENDTAB
0
TABLE
2
APPID
5
9
100
AcDbSymbolTable
70
2
0
APPID
5
12
100
AcDbSymbolTableRecord
100
AcDbRegAppTableRecord
2
ACAD
70
0
0
ENDTAB
0
TABLE
2
DIMSTYLE
5
A
100
AcDbSymbolTable
70
1
0
ENDTAB
0
TABLE
2
BLOCK_RECORD
5
1
100
AcDbSymbolTable
70
1
0
BLOCK_RECORD
5
1F
100
AcDbSymbolTableRecord
100
AcDbBlockTableRecord
2
*MODEL_SPACE
0
BLOCK_RECORD
5
1B
100
AcDbSymbolTableRecord
100
AcDbBlockTableRecord
2
*PAPER_SPACE
0
ENDTAB
0
ENDSEC
0
SECTION
2
BLOCKS
0
BLOCK
5
20
100
AcDbEntity
100
AcDbBlockBegin
2
*MODEL_SPACE
0
ENDBLK
5
21
100
AcDbEntity
100
AcDbBlockEnd
0
BLOCK
5
1C
100
AcDbEntity
100
AcDbBlockBegin
2
*PAPER_SPACE
0
ENDBLK
5
1D
100
AcDbEntity
100
AcDbBlockEnd
0
ENDSEC
0
SECTION
2
ENTITIES
0
LWPOLYLINE
5
100
100
AcDbEntity
8
0
100
AcDbPolyline
90
32
70
1
43
0.0
10
-2.3202746212790633
20
14.377948013662072
42
0.41421356237309614
10
0.37416409555834806
20
15.933582932660617
10
12.079255393629509
20
59.61757838946501
42
0.41421356237309598
10
10.523620474630969
20
62.31201710630242
10
-43.789556198346375
20
76.865188925810116
42
-0.15965616206553404
10
-44.936723459686839
20
77.614220540960105
10
-55.222440849177445
20
90.445672941308075
42
-0.23876730138662283
10
-55.63090850683551
20
92.391080042995497
10
-41.179511668535511
20
146.32442731494749
42
0.41421356237308987
10
-42.735146587534047
20
149.01886603178491
10
-77.218698558407169
20
158.25870592921305
42
0.41421356237309731
10
-79.913137275244594
20
156.7030710102145
10
-94.21596443444615
20
103.3241933294417
42
-0.33945425890353709
10
-96.341001252364137
20
101.69359522836115
10
-112.42740604235037
20
101.69359522836115
42
-0.3394542589035387
10
-114.55244286026834
20
103.32419332944171
10
-128.66091372723528
20
155.97772345240651
42
0.41421356237308471
10
-131.35535244407268
20
157.53335837140503
10
-165.8389044647586
20
148.2935184606296
42
0.41421356237308876
10
-167.39453938375709
20
145.5990797437922
10
-152.90957239546114
20
91.54044696636501
42
-0.21352378764446961
10
-153.19398106915335
20
89.766018912258886
10
-161.82233114404738
20
76.586567231708344
42
-0.1843821932873958
10
-163.09355738935369
20
75.666556568977072
10
-217.29181654963185
20
61.144176804175522
42
0.41421356237308932
10
-218.84745146863037
20
58.449738087338119
10
-207.14236017276565
20
14.765742638767883
42
0.41421356237309076
10
-204.44792145592825
20
13.210107719769354
10
-149.71821203627033
20
27.874889152306892
42
-0.065543462779070805
10
-149.14881013735089
20
27.949852334388918
10
-53.260946625411364
20
27.949852334388954
42
-0.065543462779070472
10
-52.691544726491927
20
27.874889152306928
0
CIRCLE
5
101
100
AcDbEntity
8
0
100
AcDbCircle
10
-1.5999934265282412
20
51.066663133411268
30
0
40
1.6500000000000001
210
0
220
-0
230
1
0
CIRCLE
5
102
100
AcDbEntity
8
0
100
AcDbCircle
10
-136.38618946263963
20
91.693595228361147
30
0
40
1.6500000000000001
210
0
220
-0
230
1
0
CIRCLE
5
103
100
AcDbEntity
8
0
100
AcDbCircle
10
-66.842974591956136
20
37.949852334388922
30
0
40
1.6500000000000001
210
0
220
-0
230
1
0
CIRCLE
5
104
100
AcDbEntity
8
0
100
AcDbCircle
10
-140.23814337313709
20
37.949852334388922
30
0
40
1.6500000000000001
210
0
220
-0
230
1
0
CIRCLE
5
105
100
AcDbEntity
8
0
100
AcDbCircle
10
-72.382217885464058
20
91.693595228361147
30
0
40
1.6500000000000001
210
0
220
-0
230
1
0
CIRCLE
5
106
100
AcDbEntity
8
0
100
AcDbCircle
10
-200.50945983913184
20
32.512157957410032
30
0
40
1.6500000000000001
210
0
220
-0
230
1
0
LWPOLYLINE
5
107
100
AcDbEntity
8
0
100
AcDbPolyline
90
8
70
1
43
0.0
10
-3.1707521000000005
20
18.255181199999999
42
0.41421356237309398
10
-2.5583796999999953
20
18.608734600000002
10
0.80626790000000037
20
31.165770399999996
42
0.41421356237309925
10
0.45271449999999547
20
31.778142800000001
10
-12.104321300000001
20
35.142790399999996
42
0.41421356237309415
10
-12.716693699999997
20
34.789237
10
-16.081341299999995
20
22.232201200000002
42
0.41421356237309792
10
-15.727787900000001
20
21.619828800000001
0
LWPOLYLINE
5
108
100
AcDbEntity
8
0
100
AcDbPolyline
90
8
70
1
43
0.0
10
-39.972526100000003
20
28.116186899999999
42
0.41421356237309759
10
-39.360153699999998
20
28.469740300000002
10
-35.9955061
20
41.026776099999999
42
0.41421356237310258
10
-36.349059499999996
20
41.639148500000005
10
-48.906095299999997
20
45.003796100000002
42
0.41421356237310009
10
-49.518467699999995
20
44.6502427
10
-52.8831153
20
32.093206899999998
42
0.4142135623730932
10
-52.52956189999999
20
31.480834499999997
0
LWPOLYLINE
5
109
100
AcDbEntity
8
0
100
AcDbPolyline
90
8
70
1
43
0.0
10
-21.571639099999999
20
23.185684100000007
42
0.41421356237308432
10
-20.959266700000004
20
23.539237499999999
10
-17.594619100000003
20
36.096273299999993
42
0.41421356237309853
10
-17.948172500000005
20
36.708645700000005
10
-30.5052083
20
40.073293300000003
42
0.41421356237310325
10
-31.117580700000005
20
39.719739900000008
10
-34.482228300000003
20
27.162704100000003
42
0.41421356237309004
10
-34.1286749
20
26.550331699999997
0
LWPOLYLINE
5
110
100
AcDbEntity
8
0
100
AcDbPolyline
90
8
70
1
43
0.0
10
-28.319099800000007
20
50.163812800000002
42
0.4142135623730932
10
-27.965546400000001
20
49.55144039999999
10
-15.4085106
20
46.186792799999992
42
0.41421356237309592
10
-14.796138199999987
20
46.540346200000009
10
-11.4314906
20
59.097381999999996
42
0.41421356237309243
10
-11.785043999999996
20
59.709754400000001
10
-24.3420798
20
63.074402000000006
42
0.41421356237311013
10
-24.954452199999999
20
62.720848599999997
0
LWPOLYLINE
5
111
100
AcDbEntity
8
0
100
AcDbPolyline
90
8
70
1
43
0.0
10
-46.719986800000001
20
55.094315599999995
42
0.41421356237310009
10
-46.366433399999998
20
54.481943200000003
10
-33.809397600000004
20
51.117295600000006
42
0.41421356237308682
10
-33.197025200000006
20
51.470849000000001
10
-29.832377600000001
20
64.027884799999995
42
0.41421356237308937
10
-30.185931000000004
20
64.640257200000008
10
-42.742966799999998
20
68.004904799999991
42
0.41421356237310647
10
-43.355339199999975
20
67.65135140000001
0
LWPOLYLINE
5
112
100
AcDbEntity
8
0
100
AcDbPolyline
90
8
70
1
43
0.0
10
-128.5823633
20
140.13316349999999
42
0.41421356237313794
10
-128.22880989999999
20
140.74553590000002
10
-131.5934575
20
153.30257169999999
42
0.41421356237305218
10
-132.20582990000003
20
153.65612510000005
10
-144.76286569999999
20
150.29147749999998
42
0.41421356237310514
10
-145.11641909999997
20
149.67910510000002
10
-141.75177150000002
20
137.12206930000002
42
0.41421356237311513
10
-141.13939909999999
20
136.76851590000001
0
LWPOLYLINE
5
113
100
AcDbEntity
8
0
100
AcDbPolyline
90
8
70
1
43
0.0
10
-118.7213577
20
103.3313895
42
0.4142135623731279
10
-118.36780429999999
20
103.94376190000003
10
-121.73245190000003
20
116.50079769999999
42
0.41421356237309503
10
-122.3448243
20
116.85435109999999
10
-134.90186009999999
20
113.4897035
42
0.41421356237310514
10
-135.2554135
20
112.87733109999999
10
-131.89076589999999
20
100.32029530000001
42
0.41421356237311785
10
-131.27839349999999
20
99.966741900000017
0
LWPOLYLINE
5
114
100
AcDbEntity
8
0
100
AcDbPolyline
90
8
70
1
43
0.0
10
-152.14059140000001
20
102.29012510000001
42
0.41421356237308499
10
-151.52821900000001
20
101.9365717
10
-138.97118319999998
20
105.3012193
42
0.41421356237308499
10
-138.6176298
20
105.91359170000003
10
-141.98227739999999
20
118.47062749999999
42
0.41421356237308499
10
-142.59464980000001
20
118.82418090000002
10
-155.15168560000001
20
115.4595333
42
0.41421356237312051
10
-155.50523899999999
20
114.84716090000003
0
LWPOLYLINE
5
115
100
AcDbEntity
8
0
100
AcDbPolyline
90
8
70
1
43
0.0
10
-123.6518605
20
121.7322765
42
0.41421356237311785
10
-123.29830709999996
20
122.34464890000004
10
-126.66295470000001
20
134.90168469999998
42
0.41421356237307227
10
-127.27532709999998
20
135.25523809999999
10
-139.83236290000002
20
131.8905905
42
0.41421356237308499
10
-140.18591630000003
20
131.27821809999998
10
-136.82126869999999
20
118.72118229999998
42
0.41421356237307227
10
-136.20889630000002
20
118.36762890000004
0
LWPOLYLINE
5
116
100
AcDbEntity
8
0
100
AcDbPolyline
90
8
70
1
43
0.0
10
-145.75062460000001
20
130.60243890000004
42
0.4142135623731279
10
-145.3970712
20
131.21481129999998
10
-148.76171880000001
20
143.7718471
42
0.41421356237309503
10
-149.37409119999998
20
144.12540049999996
10
-161.931127
20
140.7607529
42
0.41421356237310514
10
-162.28468040000001
20
140.14838050000003
10
-158.92003280000006
20
127.59134469999999
42
0.41421356237309237
10
-158.3076604
20
127.23779129999998
0
LWPOLYLINE
5
117
100
AcDbEntity
8
0
100
AcDbPolyline
90
8
70
1
43
0.0
10
-69.956421200000008
20
106.6389393
42
0.41421356237310003
10
-69.602867800000013
20
106.02656690000001
10
-57.045832000000004
20
102.66191929999999
42
0.41421356237310641
10
-56.433459599999985
20
103.0154727
10
-53.068812000000001
20
115.57250850000001
42
0.41421356237311513
10
-53.422365400000011
20
116.1848809
10
-65.979401200000012
20
119.54952849999999
42
0.41421356237308227
10
-66.59177360000001
20
119.19597510000001
0
LWPOLYLINE
5
118
100
AcDbEntity
8
0
100
AcDbPolyline
90
8
70
1
43
0.0
10
-50.266390600000008
20
127.9631389
42
0.41421356237311646
10
-49.65401820000001
20
128.3166923
10
-46.289370599999998
20
140.87372809999999
42
0.41421356237307089
10
-46.642924000000001
20
141.48610050000002
10
-59.199959800000002
20
144.8507481
42
0.4142135623731078
10
-59.812332200000007
20
144.49719470000002
10
-63.176979799999998
20
131.94015890000003
42
0.41421356237311613
10
-62.823426399999995
20
131.3277865
0
LWPOLYLINE
5
119
100
AcDbEntity
8
0
100
AcDbPolyline
90
8
70
1
43
0.0
10
-67.434651900000006
20
137.49386340000001
42
0.41421356237310009
10
-66.822279499999993
20
137.84741680000002
10
-63.45763190000001
20
150.40445259999998
42
0.41421356237312656
10
-63.811185300000012
20
151.01682499999998
10
-76.368221099999985
20
154.3814726
42
0.41421356237311513
10
-76.980593500000026
20
154.02791919999999
10
-80.345241099999996
20
141.47088339999999
42
0.41421356237306123
10
-79.9916877
20
140.85851100000002
0
LWPOLYLINE
5
120
100
AcDbEntity
8
0
100
AcDbPolyline
90
8
70
1
43
0.0
10
-72.365154700000005
20
119.09297649999999
42
0.41421356237307866
10
-71.752782300000007
20
119.44652990000002
10
-68.388134700000023
20
132.00356570000002
42
0.41421356237308865
10
-68.741688100000005
20
132.61593809999997
10
-81.298723900000013
20
135.98058570000001
42
0.41421356237310514
10
-81.911096299999997
20
135.6270323
10
-85.275743899999995
20
123.06999650000002
42
0.41421356237308227
10
-84.922190500000013
20
122.4576241
0
LWPOLYLINE
5
121
100
AcDbEntity
8
0
100
AcDbPolyline
90
8
70
1
43
0.0
10
-77.29565749999999
20
100.69208950000002
42
0.41421356237308499
10
-76.683285100000006
20
101.0456429
10
-73.318637499999994
20
113.60267870000001
42
0.41421356237309137
10
-73.672190900000004
20
114.21505110000001
10
-86.229226699999998
20
117.57969869999999
42
0.4142135623731078
10
-86.841599099999996
20
117.22614530000001
10
-90.206246700000023
20
104.66910949999999
42
0.41421356237308227
10
-89.852693299999999
20
104.05673709999999
0
LWPOLYLINE
5
122
100
AcDbEntity
8
0
100
AcDbPolyline
90
8
70
1
43
0.0
10
-172.63952119999999
20
25.382491399999999
42
0.41421356237311285
10
-172.28596779999998
20
25.994863800000015
10
-175.65061540000002
20
38.551899600000006
42
0.41421356237304474
10
-176.26298779999999
20
38.905453000000009
10
-188.82002360000001
20
35.540805400000011
42
0.41421356237303908
10
-189.17357699999997
20
34.928432999999998
10
-185.80892940000001
20
22.371397199999997
42
0.41421356237307927
10
-185.19655700000001
20
22.017843799999959
0
LWPOLYLINE
5
123
100
AcDbEntity
8
0
100
AcDbPolyline
90
8
70
1
43
0.0
10
-173.5711709
20
50.303008700000014
42
0.41421356237313295
10
-172.95879850000006
20
49.949455300000054
10
-160.40176270000001
20
53.314102900000002
42
0.41421356237313295
10
-160.0482093
20
53.926475300000014
10
-163.41285690000004
20
66.483511100000001
42
0.41421356237313156
10
-164.02522929999998
20
66.837064499999968
10
-176.58226509999997
20
63.472416900000006
42
0.4142135623731078
10
-176.93581850000001
20
62.860044500000001
0
LWPOLYLINE
5
124
100
AcDbEntity
8
0
100
AcDbPolyline
90
8
70
1
43
0.0
10
-154.23863420000001
20
30.312994199999999
42
0.41421356237309892
10
-153.8850808
20
30.925366600000018
10
-157.24972840000001
20
43.482402399999998
42
0.41421356237308865
10
-157.86210080000001
20
43.835955800000022
10
-170.41913660000003
20
40.471308200000003
42
0.41421356237313539
10
-170.77269000000001
20
39.858935799999983
10
-167.4080424
20
27.301900000000003
42
0.41421356237306589
10
-166.79567000000003
20
26.948346599999997
0
LWPOLYLINE
5
125
100
AcDbEntity
8
0
100
AcDbPolyline
90
8
70
1
43
0.0
10
-210.37294489999999
20
40.442003100000001
42
0.41421356237308365
10
-209.76057250000002
20
40.088449699999984
10
-197.20353669999997
20
43.453097300000003
42
0.41421356237313156
10
-196.84998329999999
20
44.065469700000008
10
-200.2146309
20
56.622505500000003
42
0.41421356237307994
10
-200.8270033
20
56.976058900000041
10
-213.3840391
20
53.6114113
42
0.41421356237311285
10
-213.73759250000003
20
52.999038899999988
0
LWPOLYLINE
5
126
100
AcDbEntity
8
0
100
AcDbPolyline
90
8
70
1
43
0.0
10
-191.97205790000001
20
45.3725059
42
0.41421356237312656
10
-191.35968549999996
20
45.018952499999969
10
-178.80264969999999
20
48.38360010000001
42
0.41421356237313156
10
-178.44909630000001
20
48.995972500000008
10
-181.81374389999999
20
61.553008300000009
42
0.41421356237310641
10
-182.42611630000002
20
61.90656170000004
10
-194.98315210000001
20
58.541914100000014
42
0.41421356237308737
10
-195.33670550000005
20
57.929541700000001
0
ENDSEC
0
SECTION
2
OBJECTS
0
DICTIONARY
5
C
100
AcDbDictionary
3
ACAD_GROUP
350
D
3
ACAD_MLINESTYLE
350
17
0
DICTIONARY
5
D
100
AcDbDictionary
0
DICTIONARY
5
1A
330
C
100
AcDbDictionary
0
DICTIONARY
5
17
100
AcDbDictionary
0
ENDSEC
0
EOF
